<svg xmlns="http://www.w3.org/2000/svg" viewBox="0 0 35.22 35.32"><path fill="#4e464f" stroke="#4e464f" d="M15.82 23.4a1.47 1.47 0 01-1.05-.43l-5.43-5.43a1.12 1.12 0 011.59-1.59l4.89 4.9 14.99-15a1.12 1.12 0 111.59 1.59L16.87 22.96a1.47 1.47 0 01-1.05.44z"/><path fill="#e1c2bf" d="M17.66 35.32a17.42 17.42 0 01-6.85-1.4 17.85 17.85 0 01-9.42-9.4 17.55 17.55 0 010-13.7 17.85 17.85 0 019.42-9.42A17.42 17.42 0 0117.66 0a18.22 18.22 0 013.7.42 1.12 1.12 0 01-.22 2.22 1.15 1.15 0 01-.24-.02 15.42 15.42 0 00-3.24-.33 15.41 15.41 0 00-15.37 15.5 15.44 15.44 0 0015.24 15.25h.13a15.36 15.36 0 0015.28-13.67 1.14 1.14 0 011.99-.63 1.12 1.12 0 01.28.88 17.73 17.73 0 01-17.55 15.7z"/></svg>