<svg xmlns="http://www.w3.org/2000/svg" viewBox="0 0 174.93 54.958"><path fill="#f3e4e1" d="M26.557 33.74l-.529-.457a62.465 62.465 0 01-6.39-6.577c-4.3-5.148-6.486-9.623-6.486-13.3A13.42 13.42 0 0126.557.001a13.42 13.42 0 0113.405 13.405c0 3.678-2.182 8.153-6.486 13.3a62.482 62.482 0 01-6.39 6.577z"/><path fill="#f3e4e1" d="M0 19.882h7.035v-2.865h-4.17v-8.1a1.04 1.04 0 00-1.05-1.035H0zm26.385-12a6 6 0 00-6 6 6 6 0 006 6 6 6 0 006-6 6 6 0 00-6-6zm0 9.135a3.124 3.124 0 01-3.135-3.135 3.134 3.134 0 013.135-3.135 3.143 3.143 0 013.136 3.135 3.134 3.134 0 01-3.136 3.135zm25.2 2.865a5.793 5.793 0 004.38-1.77L54.6 16.747a.936.936 0 00-1.245-.105 3.9 3.9 0 01-1.575.435 3.215 3.215 0 01-3.12-3.345 3.018 3.018 0 013.018-3.03 4.4 4.4 0 011.68.42.936.936 0 001.245-.1l1.365-1.365a5.554 5.554 0 00-4.19-1.775 6.1 6.1 0 00-6.045 6.255 5.876 5.876 0 005.852 5.745zm8.43 0h2.97l1.155-2.475h4.275l1.155 2.475h2.94l.03-.015-5.31-11.355a1.049 1.049 0 00-.96-.615 1.036 1.036 0 00-.96.645l-.015.015zm5.385-5.16l.885-1.9.87 1.9zm11.94 5.16h7.038v-2.865h-4.17v-8.1a1.04 1.04 0 00-1.053-1.035H77.34zm20.76 0h2.865v-4.575h4.65v4.575h2.863V8.932a1.053 1.053 0 00-1.048-1.05h-1.815v4.575h-4.65V8.932a1.044 1.044 0 00-1.05-1.05H98.1zm21.555-12a6 6 0 00-6 6 6 6 0 006 6 6 6 0 006-6 6 6 0 00-6-6zm0 9.135a3.124 3.124 0 01-3.135-3.135 3.134 3.134 0 013.135-3.135 3.143 3.143 0 013.135 3.135 3.134 3.134 0 01-3.135 3.135zm11.175 2.865h2.848v-3.255l3.257 3.255h3.96l-3.717-3.72a4.3 4.3 0 002.5-3.915 4.408 4.408 0 00-4.425-4.35h-4.423v2.85h4.44a1.535 1.535 0 011.545 1.455 1.5 1.5 0 01-1.515 1.575h-3.422a1.063 1.063 0 00-1.05 1.05zm14.866 0h2.85v-7.5l6.45 7.5h2.882V8.932a1.044 1.044 0 00-1.052-1.05h-1.8v7.665l-6.285-7.305a1.069 1.069 0 00-.8-.36h-2.25zm21.87 0h2.85v-5.55l4.515-6.435h-2.94a1.047 1.047 0 00-.855.45l-2.145 3.045-2.145-3.06a1.027 1.027 0 00-.855-.45h-2.94l4.515 6.435zm-149.408 35h2.85v-7.5l6.45 7.5h2.88v-10.95a1.044 1.044 0 00-1.05-1.05h-1.8v7.665l-6.285-7.305a1.069 1.069 0 00-.795-.36h-2.25zm17.73 0h7.155v-2.85h-4.305v-1.725h4.305v-2.85h-4.305v-1.725h4.305v-1.8a1.053 1.053 0 00-1.05-1.05h-6.1zm12.7 0h2.865v-10.95a1.053 1.053 0 00-1.045-1.05h-1.815zm14.04 0a5.792 5.792 0 001.92-.315 1.6 1.6 0 00.285-.1h.03v-.015l.24-.09a1.239 1.239 0 00.195-.1 3.222 3.222 0 00.39-.21l.18-.1.36-.24a7.945 7.945 0 00.645-.57l.015-.015a2.869 2.869 0 00.825-2.04v-1.155a1.04 1.04 0 00-1.05-1.035h-1.8v2.2l-.225.21-.24.18h-.015a2.388 2.388 0 01-.33.195 1.952 1.952 0 01-.255.12 3.619 3.619 0 01-.375.12 3.5 3.5 0 01-.8.105 3.264 3.264 0 01-.78-.105 2.963 2.963 0 01-.39-.12 1.2 1.2 0 01-.24-.12 2.565 2.565 0 01-.345-.195l-.135-.09-.03-.03c-.06-.045-.1-.09-.15-.12a3.155 3.155 0 01-1.075-2.365 3.131 3.131 0 011.08-2.37v-.015a1.3 1.3 0 01.15-.105v-.015h.015a.015.015 0 01.015-.015l.135-.09a.456.456 0 01.105-.075l.09-.045.045-.045.1-.045a1.161 1.161 0 01.24-.1l.12-.045a.278.278 0 01.1-.03l.045-.03a.353.353 0 00.12-.03 3.27 3.27 0 01.78-.09 3.492 3.492 0 01.8.09.278.278 0 00.105.03c.015.015.03.015.06.03a.213.213 0 01.09.03l.12.045a1.829 1.829 0 01.255.1l.12.075.09.045a.832.832 0 01.12.09h.015a3.636 3.636 0 01.465.375l2.01-2.01a5.84 5.84 0 00-.645-.57c-.12-.09-.24-.165-.36-.24a4.722 4.722 0 00-.765-.42c-.09-.045-.18-.075-.27-.12l-.285-.09a5.792 5.792 0 00-1.91-.315 5.792 5.792 0 00-1.92.315l-.285.09c-.09.045-.18.075-.27.12a6.441 6.441 0 00-.765.42 2.823 2.823 0 00-.345.24 6 6 0 00-.66.57 5.984 5.984 0 00-1.755 4.245 6.038 6.038 0 001.755 4.245 8.192 8.192 0 00.66.57c.1.075.225.165.345.24.06.045.135.075.195.12l.375.195.2.1c.09.03.18.075.27.105a2.188 2.188 0 00.285.1 5.792 5.792 0 001.915.325zm10.26 0h2.865v-4.575h4.65v4.575h2.865v-10.95a1.053 1.053 0 00-1.045-1.05h-1.815v4.575h-4.65v-3.525a1.044 1.044 0 00-1.05-1.05h-1.815zm15.93 0h4.16a3.789 3.789 0 003.99-3.555v-.06a3.328 3.328 0 00-1.035-2.385 3.336 3.336 0 001.035-2.4v-.045a3.789 3.789 0 00-3.99-3.555h-4.155zm2.63-7.17v-2.49h1.485a1.347 1.347 0 011.41 1.185v.12a1.346 1.346 0 01-1.365 1.185zm0 4.83v-2.49h1.53a1.346 1.346 0 011.365 1.185v.12a1.347 1.347 0 01-1.41 1.185zm16.32-9.66a6 6 0 106 6 6 6 0 00-6-6zm0 9.135a3.135 3.135 0 113.135-3.135 3.124 3.124 0 01-3.135 3.135zm16.14 2.82a5.087 5.087 0 005.145-5.055v-5.85a1.044 1.044 0 00-1.05-1.05h-1.8v6.9a2.214 2.214 0 01-2.3 2.22 2.247 2.247 0 01-2.13-2.265v-5.805a1.04 1.04 0 00-1.03-1.05h-1.8v6.825a5.065 5.065 0 004.965 5.13zm10.7.045h2.85v-3.255l3.25 3.255h3.96l-3.72-3.72a4.3 4.3 0 002.5-3.915 4.408 4.408 0 00-4.425-4.35h-4.42v2.85h4.44a1.535 1.535 0 011.545 1.455 1.5 1.5 0 01-1.51 1.58h-3.42a1.063 1.063 0 00-1.05 1.05zm14.865.075h3.72a3.877 3.877 0 003.585-3.945h-.02c.015-.015.015-.015.015-.03a3.725 3.725 0 00-.225-1.23 3.258 3.258 0 00-3.37-2.19h-.11c-.675 0-1.215-.285-1.245-.945v-.12c.03-.675.6-.855 1.275-.855h3.68l-.03-1.665a1.063 1.063 0 00-1.05-1.05h-2.66a3.579 3.579 0 00-3.57 3.57v.045a3.32 3.32 0 00.225 1.23 3.465 3.465 0 003.375 2.115h.11a1.049 1.049 0 011.185 1.02v.12a1.117 1.117 0 01-1.215 1.065h-3.68z"/><path fill="#4e464f" d="M26.578 7.882a6 6 0 00-6 6 6 6 0 006 6 6 6 0 006-6 6 6 0 00-6-6zm0 9.135a3.124 3.124 0 01-3.135-3.135 3.134 3.134 0 013.135-3.135 3.143 3.143 0 013.135 3.135 3.134 3.134 0 01-3.135 3.135z"/></svg>