<svg xmlns="http://www.w3.org/2000/svg" viewBox="0 0 45.687 57.499"><path fill="#e1c2bf" d="M22.842 57.499l-.9-.779a106.448 106.448 0 01-10.889-11.208C3.719 36.739 0 29.112 0 22.844A22.871 22.871 0 0122.842 0a22.871 22.871 0 0122.845 22.845c0 6.268-3.719 13.894-11.053 22.668A106.452 106.452 0 0123.742 56.72z"/><path fill="#2a2531" d="M23.323 16.291a8.8 8.8 0 00-8.8 8.8 8.8 8.8 0 008.8 8.8 8.8 8.8 0 008.8-8.8 8.8 8.8 0 00-8.8-8.8zm0 13.4a4.582 4.582 0 01-4.6-4.6 4.6 4.6 0 014.6-4.6 4.61 4.61 0 014.6 4.6 4.6 4.6 0 01-4.6 4.6z" opacity=".9"/></svg>