<?xml version="1.0" standalone="no"?>
<!DOCTYPE svg PUBLIC "-//W3C//DTD SVG 20010904//EN"
 "http://www.w3.org/TR/2001/REC-SVG-20010904/DTD/svg10.dtd">
<svg version="1.0" xmlns="http://www.w3.org/2000/svg"
 width="736.000000pt" height="736.000000pt" viewBox="0 0 736.000000 736.000000"
 preserveAspectRatio="xMidYMid meet">
<metadata>
Created by potrace 1.11, written by Peter Selinger 2001-2013
</metadata>
<g transform="translate(0.000000,736.000000) scale(0.100000,-0.100000)"
fill="#000000" stroke="none">
<path d="M1778 6875 c-1 -2 -28 -6 -58 -9 -30 -3 -66 -8 -80 -11 -14 -3 -41
-8 -60 -11 -40 -8 -71 -14 -85 -18 -5 -2 -23 -6 -40 -11 -160 -41 -370 -134
-520 -230 -145 -93 -338 -263 -435 -384 -19 -24 -40 -48 -45 -55 -6 -6 -26
-33 -45 -61 -19 -27 -43 -58 -53 -69 -9 -11 -17 -23 -17 -27 0 -4 -16 -31 -35
-60 -19 -30 -35 -58 -35 -63 0 -5 -6 -17 -13 -25 -15 -17 -117 -244 -122 -270
-2 -9 -10 -34 -18 -56 -22 -59 -48 -144 -52 -174 -2 -14 -11 -53 -19 -86 -13
-58 -19 -91 -34 -220 -9 -83 -8 -394 2 -485 10 -84 10 -91 20 -140 3 -19 8
-46 10 -60 18 -105 95 -341 152 -468 13 -29 24 -56 24 -61 0 -5 9 -20 21 -35
11 -14 18 -26 14 -26 -6 0 9 -29 86 -159 62 -105 77 -129 138 -218 68 -97 212
-285 241 -313 3 -3 20 -23 39 -45 165 -194 577 -608 784 -787 33 -29 147 -130
177 -158 15 -14 48 -43 75 -65 26 -22 62 -53 79 -70 18 -16 57 -50 86 -75 29
-25 58 -50 64 -55 6 -6 54 -47 106 -90 52 -44 97 -82 100 -85 3 -3 34 -30 70
-60 36 -30 67 -57 70 -60 3 -3 46 -39 95 -80 50 -41 101 -84 115 -97 14 -12
72 -62 130 -110 123 -102 134 -111 163 -138 12 -11 47 -40 77 -65 30 -25 60
-49 66 -55 6 -5 35 -31 65 -56 267 -227 418 -357 439 -377 41 -39 100 -62 163
-62 81 0 108 16 272 162 54 48 79 69 119 101 21 18 52 45 67 61 16 16 29 26
29 23 0 -3 13 7 28 21 15 15 52 47 81 72 30 25 64 54 77 65 12 11 39 34 60 50
20 17 49 41 64 55 16 14 45 39 65 55 20 17 42 35 48 40 14 12 412 348 442 373
116 97 302 258 311 268 6 8 14 14 17 14 4 0 19 12 35 27 15 16 50 46 76 68 27
22 63 54 81 70 17 17 60 55 96 85 35 30 73 64 85 75 11 11 54 49 94 85 176
156 530 504 655 644 39 43 81 91 95 106 14 14 43 48 65 76 21 27 42 51 45 54
3 3 19 23 36 45 16 22 39 51 51 65 13 14 23 28 23 31 0 3 9 17 21 30 30 35
181 264 219 333 68 124 173 346 163 346 -3 0 -1 6 5 12 11 15 73 211 96 308
17 74 23 106 32 170 3 25 9 72 14 105 8 63 6 442 -4 485 -3 14 -7 43 -10 65
-23 191 -96 427 -200 645 -43 92 -176 310 -206 340 -3 3 -23 28 -45 55 -112
140 -276 291 -430 395 -67 45 -97 63 -210 125 -43 23 -204 89 -245 100 -14 3
-34 10 -45 15 -19 8 -134 36 -185 44 -14 3 -25 5 -25 6 0 20 -440 33 -560 17
-33 -5 -71 -10 -85 -11 -47 -6 -185 -39 -217 -53 -18 -7 -33 -10 -33 -7 0 4
-7 1 -15 -6 -8 -7 -15 -10 -15 -7 0 7 -150 -56 -235 -100 -227 -116 -449 -303
-636 -538 -37 -47 -78 -103 -90 -123 -13 -20 -26 -39 -29 -42 -4 -3 -20 -27
-36 -53 -16 -27 -39 -65 -51 -85 -13 -21 -30 -52 -39 -69 -9 -18 -20 -33 -24
-33 -4 0 -20 24 -35 52 -57 108 -194 308 -280 408 -110 128 -380 370 -413 370
-6 0 -12 4 -14 8 -4 10 -125 84 -134 82 -4 -1 -10 3 -13 8 -8 12 -155 82 -173
82 -8 0 -18 4 -23 9 -8 7 -79 34 -95 36 -3 0 -11 4 -17 8 -7 5 -13 6 -13 3 0
-3 -17 1 -37 8 -21 8 -56 18 -78 22 -22 4 -42 8 -45 9 -3 0 -27 4 -53 9 -27 4
-59 10 -70 13 -25 6 -403 13 -409 8z"/>
</g>
</svg>
